<svg xmlns="http://www.w3.org/2000/svg" viewBox="0 0 512 512" fill="#3B82F6">
  <path d="M144 208C126.3 208 112 222.3 112 240C112 257.7 126.3 272 144 272S176 257.7 176 240C176 222.3 161.7 208 144 208zM256 112C238.3 112 224 126.3 224 144C224 161.7 238.3 176 256 176S288 161.7 288 144C288 126.3 273.7 112 256 112zM368 208C350.3 208 336 222.3 336 240C336 257.7 350.3 272 368 272S400 257.7 400 240C400 222.3 385.7 208 368 208zM256 32C114.6 32 0 146.6 0 288C0 396 68.9 488.3 160 510.3V444.2C133.3 432.8 112 406.3 112 376C112 336.2 144.2 304 184 304C223.8 304 256 336.2 256 376C256 406.3 234.7 432.8 208 444.2V510.3C231.8 511.4 243.8 512 256 512C397.4 512 512 397.4 512 256C512 114.6 397.4 32 256 32zM192 376C192 340.7 220.7 312 256 312C291.3 312 320 340.7 320 376C320 398.9 306.1 418.1 288 426.5V344.4C315.4 332.9 336 306.5 336 276C336 236.2 303.8 204 264 204C224.2 204 192 236.2 192 276C192 306.5 212.6 332.9 240 344.4V426.5C221.9 418.1 208 398.9 208 376H192z"/>
</svg>